<?xml version="1.0" encoding="utf-8"?>
<svg xmlns="http://www.w3.org/2000/svg" xmlns:xlink="http://www.w3.org/1999/xlink" version= "1.1" width="1146px" height="818px" viewBox="-213 302 1146 818">
<g id="layer1">
<g style="fill:rgb(118,184,188); fill-opacity:1.0; stroke-linejoin: miter">
<path d="M-213.00098,300.7515C-213.33183,300.7515,-213.64914,300.88293,-213.88309,301.11688C-214.11703,301.35083,-214.24847,301.66812,-214.24847,301.999L-214.24747,1120.0C-214.24747,1120.689,-213.68895,1121.2476,-212.99997,1121.2476L933.001,1121.2485C933.3319,1121.2485,933.6492,1121.1171,933.8832,1120.883C934.11707,1120.649,934.24854,1120.3318,934.24854,1120.001L934.24756,302.0C934.24756,301.31104,933.68896,300.7525,933.0,300.7525L-213.00098,300.7515 Z"/>
</g>
<g style="fill:rgb(0,0,0); fill-opacity:1.0; stroke-linejoin: miter">
<path d="M693.60175,925.3352L429.635,925.3363L429.635,497.4671L693.6014,497.4688L693.60175,925.3352 Z M541.07733,968.78076C541.07733,957.0176,550.5248,947.4746,562.18036,947.4746C573.83997,947.47485,583.28345,957.0178,583.28345,968.7811C583.28326,980.5405,573.83997,990.09924,562.1803,990.09924C550.52466,990.0831,541.07733,980.54016,541.07733,968.78076 M711.3125,988.11816L711.34827,988.1195L711.3481,475.3521L711.3481,475.34784L711.3481,475.24445L711.34015,475.24554C711.28436,463.53705,701.78534,454.06183,690.05786,454.06183C689.9741,454.06183,689.9064,454.06958,689.8306,454.06958L689.8306,454.06183L642.00824,454.06274L502.49078,454.06158L433.17865,454.06232C421.46716,454.06952,411.97595,463.5445,411.91217,475.24396L411.9082,475.24506L411.90826,988.1144L411.9402,988.115C411.93225,988.33704,411.90826,988.5563,411.90826,988.78784C411.90833,1000.26,421.55103,1009.5637,433.4497,1009.5641C433.62524,1009.5641,433.79663,1009.5403,433.97205,1009.536L433.97205,1009.5641L690.3489,1009.5653L690.3489,1009.56396C701.92487,1009.56396,711.3441,1000.26416,711.3441,988.78784C711.34827,988.5608,711.3204,988.3375,711.3125,988.11816 Z"/>
</g>
<g style="fill:rgb(0,182,185); fill-opacity:1.0; stroke-linejoin: miter">
<path d="M703.64465,482.34967L702.60657,941.0929L419.5918,940.4525L420.62976,481.7088 Z"/>
</g>
<g style="fill:rgb(62,49,49); fill-opacity:1.0; stroke-linejoin: miter">
<path d="M562.18036,946.0724C574.60736,946.0724,584.67194,956.2433,584.6721,968.78076C584.67194,981.3141,574.6071,991.50195,562.1803,991.50195C549.7577,991.485,539.6886,981.31384,539.6889,968.78076C539.6889,956.2439,549.7579,946.0724,562.18036,946.0724 Z"/>
</g>
<g style="fill:rgb(0,0,0); fill-opacity:1.0; stroke-linejoin: miter">
<path d="M334.17264,925.3353L70.20579,925.3363L70.20588,497.4671L334.1722,497.4688L334.17264,925.3353 Z M181.64818,968.7809C181.64818,957.0177,191.09563,947.47473,202.75125,947.47473C214.41083,947.475,223.85431,957.01794,223.85431,968.78125C223.85413,980.54065,214.41083,990.09937,202.75116,990.09937C191.09554,990.08325,181.64818,980.5403,181.64818,968.7809 M351.8834,988.1183L351.91922,988.1196L351.91898,475.3521L351.91898,475.34784L351.91898,475.24445L351.91098,475.24554C351.8552,463.53705,342.35617,454.06183,330.6287,454.06183C330.54495,454.06183,330.47726,454.06958,330.40146,454.06958L330.40146,454.06183L282.57907,454.06274L143.06163,454.06152L73.74949,454.06226C62.038002,454.06946,52.54679,463.5445,52.48304,475.24396L52.479042,475.24506L52.479042,988.1144L52.510963,988.115C52.503,988.33704,52.479042,988.5563,52.479042,988.78784C52.479134,1000.26,62.121834,1009.5637,74.020515,1009.5641C74.19605,1009.5641,74.36741,1009.5403,74.542854,1009.536L74.542854,1009.5641L330.91977,1009.5654L330.91977,1009.5641C342.49582,1009.5641,351.915,1000.2643,351.915,988.78796C351.91922,988.5609,351.89127,988.33765,351.8834,988.1183 Z"/>
</g>
<g style="fill:rgb(0,182,185); fill-opacity:1.0; stroke-linejoin: miter">
<path d="M344.21548,482.34967L343.17746,941.093L60.162605,940.4525L61.20063,481.7088 Z"/>
</g>
<g style="fill:rgb(62,49,49); fill-opacity:1.0; stroke-linejoin: miter">
<path d="M202.75125,946.0725C215.17825,946.0725,225.2428,956.2434,225.24298,968.7809C225.2428,981.3142,215.17798,991.5021,202.75116,991.5021C190.32857,991.4851,180.25948,981.31396,180.25975,968.7809C180.25975,956.244,190.32875,946.0725,202.75125,946.0725 Z"/>
</g>
<g style="fill:rgb(0,0,0); fill-opacity:1.0; stroke-linejoin: miter">
<path d="M187.30647,735.7476L182.4182,731.8818Q175.94804,718.0356,171.86398,704.5156Q169.28853,695.5226,169.5409,686.91565Q169.71129,682.61816,170.85373,678.45355L172.26695,674.3322Q175.73239,666.10144,182.13455,659.1772Q185.28117,655.7454,188.83574,652.822Q190.52124,650.9518,199.87338,645.49927Q207.16057,641.6409,214.82376,640.9946Q222.27324,640.5558,229.1458,642.95184Q234.87373,644.7829,244.63649,650.0308Q253.60188,650.9418,257.4007,654.18677Q260.70047,656.90717,261.52866,663.0831Q262.54587,670.217,261.14853,685.61554L187.30647,735.7476"/>
</g>
<g style="fill:rgb(0,0,0); fill-opacity:1.0; stroke-linejoin: miter">
<path d="M515.7922,674.2913L515.8799,671.62537Q516.2388,659.5863,517.9563,654.71844Q519.8132,650.0179,520.58905,649.5628Q521.72614,648.15485,523.2655,647.2319Q526.4139,645.45264,530.4967,644.97943Q532.6925,644.6268,542.3869,644.1638L545.65424,643.65Q546.6749,643.6187,554.6509,640.4177L557.52295,639.7315Q560.9717,639.2136,564.4427,639.60846Q581.08325,641.51825,591.7376,653.108Q593.6784,655.39343,595.22174,658.0453L596.65265,660.7755Q597.978,663.5904,598.8285,666.69006Q600.5551,672.9169,600.07306,679.9561Q599.21356,690.5348,593.0552,701.916Q592.286,703.7742,586.2558,713.379Q582.5831,719.1499,572.5572,732.8244L540.9684,726.692L515.7922,674.2913"/>
</g>
<g style="fill:rgb(34,43,50); fill-opacity:1.0; stroke-linejoin: miter">
<path d="M528.2368,944.05945L573.85657,949.2374Q629.92896,948.5475,649.2903,941.4238Q659.27295,937.90625,664.05786,930.38Q665.62115,927.82166,666.5116,924.66974Q667.32666,923.3895,667.75336,913.99976Q668.3292,902.2499,659.9128,872.229L651.3552,845.3015Q650.4517,842.10815,647.2299,840.96063L642.5758,825.6751Q645.21674,823.0939,645.1407,818.61786Q644.9464,814.7861,642.9403,807.0364Q643.77985,793.9896,643.276,790.56494Q642.56006,784.3759,641.4316,782.69257Q638.7722,777.7907,634.0872,775.27747L630.6366,773.3181L606.5444,764.28577Q592.9834,748.84863,586.4477,749.71136L576.3475,734.08057Q573.70685,743.53644,570.4601,747.3602L566.96936,751.1596Q552.35205,762.82623,550.1616,765.95135Q545.03503,771.85626,540.9112,780.04877Q524.52594,815.2033,517.3183,845.11676Q511.85126,867.2036,515.9062,904.6891Q502.71252,910.2614,503.77814,917.37616Q503.601,921.2542,509.78662,933.46204L528.2368,944.05945"/>
</g>
<g style="fill:rgb(34,43,50); fill-opacity:1.0; stroke-linejoin: miter">
<path d="M424.43646,942.02515L433.50024,923.4336C446.471,896.08594,444.97992,878.57544,450.36578,853.7935C447.6955,853.8104,445.36334,854.00555,443.9889,855.22687C433.33557,864.6935,426.99646,870.1151,424.26764,870.71857C422.35822,872.40894,408.80255,877.49756,383.36478,885.2218C381.94754,885.65216,377.8956,888.61554,370.98538,894.4489C369.4307,895.76135,365.91727,897.1669,360.8046,899.13586L342.99872,870.3039L382.99368,840.67114C390.53394,835.4991,397.346,831.49164,403.4298,828.6484L415.90027,817.86835C418.16418,816.4263,421.03882,815.5533,424.52423,815.2495C431.24774,805.8237,439.0277,798.9667,447.864,794.67847C457.15228,773.03723,465.43518,761.50726,471.82874,758.1713C476.23492,755.8724,488.9483,752.57446,511.07727,750.0778L579.60614,751.43677L554.5138,942.75073L439.2874,942.7175 Z"/>
</g>
<g style="fill:rgb(255,255,255); fill-opacity:1.0; stroke-linejoin: miter">
<path d="M513.05566,944.37305L466.70844,942.4022Q481.18573,882.79144,487.55927,860.95245Q492.40247,844.19226,496.6529,831.69403Q511.18835,790.2145,517.036,772.3282Q516.7725,759.6725,519.6259,756.0023Q525.2654,747.5991,535.24634,744.20734Q546.7328,739.2683,576.18665,732.3862Q577.3849,732.568,577.0671,733.8664Q576.3909,736.8002,574.5697,740.30585L552.72284,779.6618Q546.05884,791.8552,540.2897,804.2859Q535.5284,813.8049,529.40967,833.25433Q525.66705,844.5039,520.58777,874.82574L513.05566,944.37305"/>
</g>
<g style="fill:rgb(255,0,0); fill-opacity:1.0; stroke-linejoin: miter">
<path d="M529.2429,771.97675L525.04596,771.02203L523.6141,786.5575Q500.12396,838.0409,494.62323,861.28876Q488.00806,884.9814,487.26642,927.37964L500.2851,926.4232Q497.00354,920.5538,496.63123,915.1063Q496.26086,910.5529,498.1631,903.4733L506.44,875.6759Q507.05206,873.777,510.8592,859.5954Q515.3929,842.7928,528.24414,789.0721L537.221,782.6684L529.2429,771.97675"/>
</g>
<g style="fill:rgb(255,189,164); fill-opacity:1.0; stroke-linejoin: miter">
<path d="M533.5393,767.43134L528.82355,767.0403L520.03735,751.3341Q511.1306,751.66095,507.48212,750.60004Q503.44946,749.53107,501.4408,746.42834Q499.50726,743.3386,500.05695,739.5147Q500.2622,736.73834,503.5772,729.80835L502.2445,727.18823L504.4093,724.99634L504.16486,721.4817Q496.9391,721.3149,496.20123,716.8857Q496.0183,714.2724,497.35065,712.3371Q498.45398,710.1894,504.0354,704.32416Q502.88782,698.48413,503.5807,695.9179Q504.0478,693.28864,507.51514,688.7376Q506.60675,681.6784,509.70612,675.10516Q512.9752,666.7022,518.3194,662.46204Q518.8568,668.4412,522.83325,671.75903Q526.3217,674.40356,534.4317,677.3089L543.5258,683.4604L541.336,695.1647L549.7037,704.09894L547.78357,716.1651L555.85333,718.03174Q561.62555,707.0096,567.7469,707.0626Q571.6407,706.58246,575.5915,708.1285Q579.689,710.0856,579.90424,712.62177Q580.45624,717.3496,573.14343,727.08545L574.20404,735.8796L533.5393,767.43134"/>
</g>
<g style="fill:rgb(255,189,164); fill-opacity:1.0; stroke-linejoin: miter">
<path d="M519.3555,944.5045L486.1599,944.4304Q481.32397,937.4889,480.6507,932.92944Q480.2884,929.2335,482.22845,924.3503Q479.34534,920.7527,479.70172,919.19714Q479.73712,917.59845,483.40375,914.88794Q482.22815,912.28107,483.0221,911.0787Q483.45715,910.386,484.774,909.95435Q485.59875,909.5824,489.27332,909.23285Q491.48688,909.0668,494.02362,908.9964L513.15967,908.5252L519.3555,944.5045"/>
</g>
<g style="fill:rgb(255,255,255); fill-opacity:1.0; stroke-linejoin: miter">
<path d="M510.13147,907.11017L509.6488,908.1476Q506.30206,914.6585,506.26385,921.7142Q506.06744,927.80444,510.15155,944.9916L533.935,945.20764L526.6796,905.9134L510.13147,907.11017"/>
</g>
<g style="fill:rgb(152,136,136); fill-opacity:1.0; stroke-linejoin: miter">
<path d="M169.21172,939.7163L169.78297,930.7371L170.35422,921.75806Q169.78297,930.7371,169.21172,939.7163"/>
</g>
<g style="fill:rgb(255,255,255); fill-opacity:1.0; stroke-linejoin: miter">
<path d="M146.65598,941.70776L147.8487,936.12915Q139.3278,933.47754,145.93877,922.1091L119.22522,874.14307Q114.841125,865.7922,112.19626,855.92816Q106.80455,834.569,111.694336,796.3547Q114.27547,783.4454,120.51149,779.025Q123.330505,776.2053,133.46129,770.5971Q140.59023,766.52435,175.93468,749.06323L182.49677,735.4545L268.6265,748.7432Q281.6616,751.30145,289.03317,756.2213Q299.28482,761.26117,316.03616,786.4739L343.7417,830.95514Q348.23602,838.8031,346.9884,845.23737Q345.89435,850.86676,340.04926,858.69684L305.58777,861.99994Q296.95508,853.3336,294.7412,829.03564Q296.7392,865.3699,291.92944,886.0327L291.63562,941.0465L146.65598,941.70776"/>
</g>
<g style="fill:rgb(255,189,164); fill-opacity:1.0; stroke-linejoin: miter">
<path d="M184.82903,737.1754L184.62479,733.9408L183.647,722.1569Q183.38084,719.6094,182.16321,713.5311Q181.95471,711.5885,182.01314,711.168Q182.37279,705.1082,185.58983,702.3903Q188.03798,700.59863,191.69873,703.09485Q195.75845,705.742,203.65701,714.4345L212.56703,715.13104L214.24716,703.74255L225.5095,698.6591Q221.209,689.5792,220.87132,685.57886Q220.81847,681.72345,221.43138,681.26953Q222.0128,680.03394,223.25359,679.1338Q228.05986,675.059,255.52821,677.17914L260.72183,674.7692Q267.8397,690.6684,267.7109,696.50854Q268.24014,702.7251,261.92325,710.9392Q269.42355,724.1763,270.28043,729.7852Q270.6381,733.3491,268.29337,734.69745Q266.49796,735.9508,261.40958,736.6845Q260.43558,738.8383,259.97452,741.39325Q261.22128,743.3698,260.80472,744.75586Q260.57364,746.07086,258.0319,749.4965Q258.93552,757.6096,255.77235,760.6483Q253.46062,763.8097,236.71916,762.68054L232.88112,766.42096L225.84431,768.04755Q202.46603,757.85956,196.10562,752.7093Q188.79425,747.5689,184.82903,737.1754"/>
</g>
<g style="fill:rgb(255,189,164); fill-opacity:1.0; stroke-linejoin: miter">
<path d="M278.27307,881.62933L299.15552,878.0882L312.4223,872.85114L326.78845,873.3036L330.1853,870.6237L337.28723,871.2135L341.02234,874.23267L347.07336,871.6261Q354.42273,878.27435,355.9206,881.0699Q359.21213,885.7549,356.3106,893.90137Q361.5471,900.13,359.66678,903.01666Q356.7947,907.6779,352.58472,904.33093Q356.48016,907.5194,353.36304,911.0512Q350.9865,913.999,349.44293,914.1381Q347.84613,914.4991,345.44128,912.8714Q348.4502,914.94543,347.8817,916.1942Q347.68323,917.405,343.14062,920.2497Q343.46844,923.2551,342.64484,924.3122Q341.9973,925.44885,338.72705,926.8312Q335.40442,931.20337,334.3098,932.0104Q332.40533,933.5576,331.55548,933.5475Q329.39844,934.001,325.69586,931.3213Q322.38965,931.9658,321.02576,931.2716Q319.44696,930.574,317.76935,927.1626Q312.19794,930.84814,310.1579,929.16113Q308.65515,928.3369,306.6889,926.0963Q303.3996,924.37805,302.11414,923.11774Q300.67676,921.56775,300.99512,919.29126Q297.51263,919.3003,295.7567,918.1617Q294.248,917.278,292.2033,913.4346L278.67932,913.5372L278.27307,881.62933"/>
</g>
<g style="fill:rgb(255,189,164); fill-opacity:1.0; stroke-linejoin: miter">
<path d="M337.95288,854.6741L334.72876,871.7602L314.13824,876.8933L304.98383,876.6476L303.247,871.662L300.61133,870.4499L300.13257,863.50183L296.81494,863.0568L296.43878,857.3751L308.7929,853.81195Q305.7365,848.79803,305.602,847.408Q305.4558,846.22766,305.6042,846.1059Q305.83557,845.3895,306.62805,844.99054Q307.08844,844.63666,309.36377,844.3107Q310.05975,844.1762,317.19336,843.8241Q319.1269,843.69464,320.91913,843.4133Q322.4386,843.19354,326.44604,842.04614Q327.74133,841.7855,327.98444,841.8012Q330.06604,841.57776,332.19452,843.06934Q334.52277,844.66925,338.30817,849.02954L337.95288,854.6741"/>
</g>
<g style="fill:rgb(255,196,168); fill-opacity:1.0; stroke-linejoin: miter">
<path d="M332.2074,811.61115L332.2074,811.61115L332.20734,811.61115L332.2074,811.61115"/>
</g>
<g style="fill:rgb(0,0,0); fill-opacity:1.0; stroke-linejoin: miter">
<path d="M219.72197,777.12006L224.4857,773.9671L229.2495,770.81433Q234.26906,771.00555,239.28859,771.19666L235.52577,789.6035Q227.6238,783.36176,219.72197,777.12006"/>
</g>
<g style="fill:rgb(0,0,0); fill-opacity:1.0; stroke-linejoin: miter">
<path d="M229.81993,781.6955L229.84758,783.0911Q229.81862,790.932,232.07954,809.7682Q233.92674,825.556,242.10265,883.47406L259.51282,881.6652Q249.9673,833.0805,246.81456,818.97656Q243.90392,805.19336,240.46,793.2376Q238.58852,786.8942,235.852,780.0024L229.81993,781.6955"/>
</g>
<g style="fill:rgb(0,0,0); fill-opacity:1.0; stroke-linejoin: miter">
<path d="M244.1205,775.2332L244.1205,775.2332L244.1205,775.2332L244.1205,775.2332"/>
</g>
<g style="fill:rgb(0,0,0); fill-opacity:1.0; stroke-linejoin: miter">
<path d="M259.80542,926.13226L259.80542,926.1326L261.11945,941.4336Q254.8744,941.5039,248.62938,941.5742Q248.3171,935.43274,248.00478,929.2909L259.80542,926.13226"/>
</g>
<g style="fill:rgb(255,255,255); fill-opacity:1.0; stroke-linejoin: miter">
<path d="M537.1948,668.71906L537.1948,668.7193L537.1948,668.7194L537.1948,668.71906"/>
</g>
<g style="fill:rgb(255,0,0); fill-opacity:1.0; stroke-linejoin: miter">
<path d="M521.05054,752.19275L521.05054,752.19275Q585.67676,728.3647,521.05054,752.19275"/>
</g>
<g style="fill:rgb(255,0,0); fill-opacity:0.09411765; stroke-linejoin: miter">
<path d="M520.33295,751.3779L521.9936,751.1711Q533.0658,749.85376,537.696,748.64343Q542.028,747.58923,544.7288,744.8941L533.4078,767.3282L528.9066,767.2206L520.33295,751.3779"/>
</g>
<g style="fill:rgb(255,0,0); fill-opacity:0.09411765; stroke-linejoin: miter">
<path d="M237.1899,762.20294L221.99309,758.34174L224.92534,768.17456L233.51347,767.7458L237.1899,762.20294"/>
</g>
<g style="fill:rgb(34,43,50); fill-opacity:1.0; stroke-linejoin: miter">
<path d="M459.8778,647.05255L459.87787,647.0527L459.878,647.05304L459.87787,647.0527L459.8778,647.05255L459.87787,647.0527L459.878,647.05304Q459.87787,647.0527,459.8778,647.05255"/>
</g>
<g style="fill:rgb(34,43,50); fill-opacity:1.0; stroke-linejoin: miter">
<path d="M459.8778,647.05255L459.87787,647.0527L459.878,647.05304L459.87787,647.0527L459.8778,647.05255L459.87787,647.0527L459.878,647.05304Q459.87787,647.0527,459.8778,647.05255"/>
</g>
<g style="fill:rgb(0,0,0); fill-opacity:0.4392157; stroke-linejoin: miter">
<path d="M810.9652,1007.73486L807.18335,1008.876Q807.3925,1009.30176,777.7506,1011.0216Q764.10376,1011.68567,745.3424,1012.2815Q707.8196,1013.47327,649.8386,1014.3922Q591.45636,1015.31055,523.8591,1015.7435Q437.34674,1016.1786,417.27985,1016.1201Q380.0257,1016.15466,340.4677,1016.0679Q319.49152,1016.072,234.76793,1015.47034Q202.05434,1015.19336,172.70027,1014.8125Q113.99218,1014.0508,68.722305,1012.8738Q-32.34961,1010.02625,-15.222969,1006.95557Q-7.695185,1005.4265,22.046019,1004.13477Q36.91662,1003.4888,57.340572,1002.9022Q64.41077,1002.5652,130.44931,1001.28906Q240.20007,999.4054,396.6833,999.3252Q474.92493,999.36523,541.4834,999.8562Q622.12585,1000.5686,634.74945,1000.8463Q663.64746,1001.261,689.62476,1001.7882Q749.70886,1003.15845,755.0617,1003.50366Q772.709,1004.1199,784.8029,1004.7954Q808.9907,1006.1466,810.9652,1007.73486"/>
</g>
<g style="fill:rgb(0,0,0); fill-opacity:0.10980392; stroke-linejoin: miter">
<path d="M598.77313,859.987L607.0981,896.9438L528.02795,902.9931L594.12823,889.09106L598.77313,859.987"/>
</g>
<g style="fill:rgb(0,0,0); fill-opacity:0.105882354; stroke-linejoin: miter">
<path d="M164.45117,852.1626L174.85472,868.7742L185.25827,885.3858L272.22723,883.28015Q230.84683,878.3933,189.46645,873.5065Q176.9588,862.83453,164.45117,852.1626"/>
</g>
</g>
</svg>