<?xml version="1.0" encoding="UTF-8" standalone="no"?>
<!-- Created with Inkscape (http://www.inkscape.org/) -->

<svg
   width="592mm"
   height="265mm"
   viewBox="0 0 592 265"
   version="1.1"
   id="svg5"
   inkscape:version="1.2.1 (9c6d41e410, 2022-07-14)"
   sodipodi:docname="dibujo2.svg"
   xmlns:inkscape="http://www.inkscape.org/namespaces/inkscape"
   xmlns:sodipodi="http://sodipodi.sourceforge.net/DTD/sodipodi-0.dtd"
   xmlns="http://www.w3.org/2000/svg"
   xmlns:svg="http://www.w3.org/2000/svg">
  <sodipodi:namedview
     id="namedview7"
     pagecolor="#ffffff"
     bordercolor="#000000"
     borderopacity="0.25"
     inkscape:showpageshadow="2"
     inkscape:pageopacity="0.0"
     inkscape:pagecheckerboard="0"
     inkscape:deskcolor="#d1d1d1"
     inkscape:document-units="mm"
     showgrid="false"
     inkscape:zoom="0.34472144"
     inkscape:cx="1940.6974"
     inkscape:cy="525.06162"
     inkscape:window-width="1920"
     inkscape:window-height="1017"
     inkscape:window-x="-8"
     inkscape:window-y="-8"
     inkscape:window-maximized="1"
     inkscape:current-layer="layer1" />
  <defs
     id="defs2">
    <filter
       inkscape:collect="always"
       style="color-interpolation-filters:sRGB"
       id="filter12659"
       x="-0.02825002"
       y="-0.032201997"
       width="1.0565"
       height="1.064404">
      <feGaussianBlur
         inkscape:collect="always"
         stdDeviation="0.27080809"
         id="feGaussianBlur12661" />
    </filter>
    <filter
       inkscape:collect="always"
       style="color-interpolation-filters:sRGB"
       id="filter12663"
       x="-0.030882971"
       y="-0.035203279"
       width="1.0617659"
       height="1.0704066">
      <feGaussianBlur
         inkscape:collect="always"
         stdDeviation="0.30087592"
         id="feGaussianBlur12665" />
    </filter>
    <filter
       inkscape:collect="always"
       style="color-interpolation-filters:sRGB"
       id="filter12667"
       x="-0.029549173"
       y="-0.033682893"
       width="1.0590983"
       height="1.0673658">
      <feGaussianBlur
         inkscape:collect="always"
         stdDeviation="0.28564421"
         id="feGaussianBlur12669" />
    </filter>
    <filter
       inkscape:collect="always"
       style="color-interpolation-filters:sRGB"
       id="filter12671"
       x="-0.036564596"
       y="-0.041679723"
       width="1.0731292"
       height="1.0833594">
      <feGaussianBlur
         inkscape:collect="always"
         stdDeviation="0.36575908"
         id="feGaussianBlur12673" />
    </filter>
    <filter
       inkscape:collect="always"
       style="color-interpolation-filters:sRGB"
       id="filter12675"
       x="-0.029549173"
       y="-0.033682893"
       width="1.0590983"
       height="1.0673658">
      <feGaussianBlur
         inkscape:collect="always"
         stdDeviation="0.28564421"
         id="feGaussianBlur12677" />
    </filter>
    <filter
       inkscape:collect="always"
       style="color-interpolation-filters:sRGB"
       id="filter12679"
       x="-0.029549173"
       y="-0.033682893"
       width="1.0590983"
       height="1.0673658">
      <feGaussianBlur
         inkscape:collect="always"
         stdDeviation="0.28564421"
         id="feGaussianBlur12681" />
    </filter>
    <filter
       inkscape:collect="always"
       style="color-interpolation-filters:sRGB"
       id="filter12683"
       x="-0.026982108"
       y="-0.054538123"
       width="1.0539451"
       height="1.1090762">
      <feGaussianBlur
         inkscape:collect="always"
         stdDeviation="0.21713995"
         id="feGaussianBlur12685" />
    </filter>
    <filter
       inkscape:collect="always"
       style="color-interpolation-filters:sRGB"
       id="filter12687"
       x="-0.02825002"
       y="-0.032201997"
       width="1.0565"
       height="1.064404">
      <feGaussianBlur
         inkscape:collect="always"
         stdDeviation="0.27080809"
         id="feGaussianBlur12689" />
    </filter>
    <filter
       inkscape:collect="always"
       style="color-interpolation-filters:sRGB"
       id="filter12691"
       x="-0.029549173"
       y="-0.033682893"
       width="1.0590983"
       height="1.0673658">
      <feGaussianBlur
         inkscape:collect="always"
         stdDeviation="0.28564421"
         id="feGaussianBlur12693" />
    </filter>
    <filter
       inkscape:collect="always"
       style="color-interpolation-filters:sRGB"
       id="filter12695"
       x="-0.029549173"
       y="-0.033682893"
       width="1.0590983"
       height="1.0673658">
      <feGaussianBlur
         inkscape:collect="always"
         stdDeviation="0.28564421"
         id="feGaussianBlur12697" />
    </filter>
    <filter
       inkscape:collect="always"
       style="color-interpolation-filters:sRGB"
       id="filter12699"
       x="-0.029549173"
       y="-0.033682893"
       width="1.0590983"
       height="1.0673658">
      <feGaussianBlur
         inkscape:collect="always"
         stdDeviation="0.28564421"
         id="feGaussianBlur12701" />
    </filter>
    <filter
       inkscape:collect="always"
       style="color-interpolation-filters:sRGB"
       id="filter12703"
       x="-0.026962958"
       y="-0.054538131"
       width="1.0539451"
       height="1.1090763">
      <feGaussianBlur
         inkscape:collect="always"
         stdDeviation="0.21713993"
         id="feGaussianBlur12705" />
    </filter>
  </defs>
  <g
     inkscape:label="Capa 1"
     inkscape:groupmode="layer"
     id="layer1">
    <path
       sodipodi:type="star"
       style="fill:#ea1a1a;fill-opacity:0;stroke:#bf4343;stroke-width:0.24865;stroke-dasharray:none;stroke-opacity:1"
       id="path5530-4-5-1"
       inkscape:flatsided="true"
       sodipodi:sides="6"
       sodipodi:cx="83.172485"
       sodipodi:cy="31.885044"
       sodipodi:r1="13.703786"
       sodipodi:r2="11.867827"
       sodipodi:arg1="0"
       sodipodi:arg2="0.52359878"
       inkscape:rounded="0.03"
       inkscape:randomized="0"
       d="m 96.876271,31.885044 c 0,0.411114 -6.495858,11.66227 -6.851893,11.867827 -0.356035,0.205557 -13.347751,0.205557 -13.703786,0 -0.356034,-0.205557 -6.851893,-11.456713 -6.851893,-11.867827 0,-0.411113 6.495859,-11.66227 6.851893,-11.867827 0.356035,-0.205556 13.347751,-0.205556 13.703786,0 0.356035,0.205557 6.851893,11.456714 6.851893,11.867827 z"
       transform="matrix(2.7348954,0,0,1.9826282,306.56848,58.449536)"
       inkscape:transform-center-y="-1.9236686e-06"
       inkscape:transform-center-x="3.9781675e-06" />
    <path
       sodipodi:type="star"
       style="fill:#6b1313;fill-opacity:1;stroke:#6d1313;stroke-width:0.24865;stroke-dasharray:none;stroke-opacity:1"
       id="path5530-6"
       inkscape:flatsided="true"
       sodipodi:sides="6"
       sodipodi:cx="83.172485"
       sodipodi:cy="31.885044"
       sodipodi:r1="13.703786"
       sodipodi:r2="11.867827"
       sodipodi:arg1="0"
       sodipodi:arg2="0.52359878"
       inkscape:rounded="0.03"
       inkscape:randomized="0"
       d="m 96.876271,31.885044 c 0,0.411114 -6.495858,11.66227 -6.851893,11.867827 -0.356035,0.205557 -13.347751,0.205557 -13.703786,0 -0.356034,-0.205557 -6.851893,-11.456713 -6.851893,-11.867827 0,-0.411113 6.495859,-11.66227 6.851893,-11.867827 0.356035,-0.205556 13.347751,-0.205556 13.703786,0 0.356035,0.205557 6.851893,11.456714 6.851893,11.867827 z"
       inkscape:transform-center-x="2.2922924e-05"
       transform="matrix(2.7348954,0,0,1.9826282,193.99355,-37.183166)" />
    <path
       sodipodi:type="star"
       style="mix-blend-mode:difference;fill:#6b1313;fill-opacity:1;stroke:#871818;stroke-width:0.24865;stroke-dasharray:none;stroke-opacity:1;filter:url(#filter12663)"
       id="path5530-6-2"
       inkscape:flatsided="true"
       sodipodi:sides="6"
       sodipodi:cx="83.172485"
       sodipodi:cy="31.885044"
       sodipodi:r1="13.703786"
       sodipodi:r2="11.867827"
       sodipodi:arg1="0"
       sodipodi:arg2="0.52359878"
       inkscape:rounded="0.03"
       inkscape:randomized="0"
       d="m 96.876271,31.885044 c 0,0.411114 -6.495858,11.66227 -6.851893,11.867827 -0.356035,0.205557 -13.347751,0.205557 -13.703786,0 -0.356034,-0.205557 -6.851893,-11.456713 -6.851893,-11.867827 0,-0.411113 6.495859,-11.66227 6.851893,-11.867827 0.356035,-0.205556 13.347751,-0.205556 13.703786,0 0.356035,0.205557 6.851893,11.456714 6.851893,11.867827 z"
       inkscape:transform-center-x="1.2763154e-05"
       transform="matrix(2.7348954,0,0,1.9826282,80.263146,10.706189)" />
    <path
       sodipodi:type="star"
       style="fill:#c53c3c;fill-opacity:1;stroke:#c73b3b;stroke-width:0.24865;stroke-dasharray:none;stroke-opacity:1"
       id="path5530-4-5-4"
       inkscape:flatsided="true"
       sodipodi:sides="6"
       sodipodi:cx="83.172485"
       sodipodi:cy="31.885044"
       sodipodi:r1="13.703786"
       sodipodi:r2="11.867827"
       sodipodi:arg1="0"
       sodipodi:arg2="0.52359878"
       inkscape:rounded="0.03"
       inkscape:randomized="0"
       d="m 96.876271,31.885044 c 0,0.411114 -6.495858,11.66227 -6.851893,11.867827 -0.356035,0.205557 -13.347751,0.205557 -13.703786,0 -0.356034,-0.205557 -6.851893,-11.456713 -6.851893,-11.867827 0,-0.411113 6.495859,-11.66227 6.851893,-11.867827 0.356035,-0.205556 13.347751,-0.205556 13.703786,0 0.356035,0.205557 6.851893,11.456714 6.851893,11.867827 z"
       inkscape:transform-center-x="8.0493697e-06"
       transform="matrix(2.7348954,0,0,1.9826282,194.26351,9.9187493)"
       inkscape:transform-center-y="-1.8058478e-06" />
    <path
       sodipodi:type="star"
       style="fill:#c53c3c;fill-opacity:1;stroke:#c73b3b;stroke-width:0.24865;stroke-dasharray:none;stroke-opacity:1"
       id="path5530-4-5-4-2"
       inkscape:flatsided="true"
       sodipodi:sides="6"
       sodipodi:cx="83.172485"
       sodipodi:cy="31.885044"
       sodipodi:r1="13.703786"
       sodipodi:r2="11.867827"
       sodipodi:arg1="0"
       sodipodi:arg2="0.52359878"
       inkscape:rounded="0.03"
       inkscape:randomized="0"
       d="m 96.876271,31.885044 c 0,0.411114 -6.495858,11.66227 -6.851893,11.867827 -0.356035,0.205557 -13.347751,0.205557 -13.703786,0 -0.356034,-0.205557 -6.851893,-11.456713 -6.851893,-11.867827 0,-0.411113 6.495859,-11.66227 6.851893,-11.867827 0.356035,-0.205556 13.347751,-0.205556 13.703786,0 0.356035,0.205557 6.851893,11.456714 6.851893,11.867827 z"
       inkscape:transform-center-x="4.6757749e-06"
       transform="matrix(2.7348954,0,0,1.9826282,136.93475,129.34389)"
       inkscape:transform-center-y="5.0505767e-06" />
    <path
       sodipodi:type="star"
       style="mix-blend-mode:difference;fill:#c53c3c;fill-opacity:1;stroke:#c73b3b;stroke-width:0.24865;stroke-dasharray:none;stroke-opacity:1;filter:url(#filter12667)"
       id="path5530-4-5-4-2-4"
       inkscape:flatsided="true"
       sodipodi:sides="6"
       sodipodi:cx="83.172485"
       sodipodi:cy="31.885044"
       sodipodi:r1="13.703786"
       sodipodi:r2="11.867827"
       sodipodi:arg1="0"
       sodipodi:arg2="0.52359878"
       inkscape:rounded="0.03"
       inkscape:randomized="0"
       d="m 96.876271,31.885044 c 0,0.411114 -6.495858,11.66227 -6.851893,11.867827 -0.356035,0.205557 -13.347751,0.205557 -13.703786,0 -0.356034,-0.205557 -6.851893,-11.456713 -6.851893,-11.867827 0,-0.411113 6.495859,-11.66227 6.851893,-11.867827 0.356035,-0.205556 13.347751,-0.205556 13.703786,0 0.356035,0.205557 6.851893,11.456714 6.851893,11.867827 z"
       inkscape:transform-center-x="1.1953225e-05"
       transform="matrix(2.7348954,0,0,1.9826282,80.55001,-36.939794)"
       inkscape:transform-center-y="-2.7107363e-06" />
    <path
       sodipodi:type="star"
       style="fill:#a80000;fill-opacity:1;stroke:#a90303;stroke-width:0.24865;stroke-dasharray:none;stroke-opacity:1"
       id="path5530-4-5-2-67"
       inkscape:flatsided="true"
       sodipodi:sides="6"
       sodipodi:cx="83.172485"
       sodipodi:cy="31.885044"
       sodipodi:r1="13.703786"
       sodipodi:r2="11.867827"
       sodipodi:arg1="0"
       sodipodi:arg2="0.52359878"
       inkscape:rounded="0.03"
       inkscape:randomized="0"
       d="m 96.876271,31.885044 c 0,0.411114 -6.495858,11.66227 -6.851893,11.867827 -0.356035,0.205557 -13.347751,0.205557 -13.703786,0 -0.356034,-0.205557 -6.851893,-11.456713 -6.851893,-11.867827 0,-0.411113 6.495859,-11.66227 6.851893,-11.867827 0.356035,-0.205556 13.347751,-0.205556 13.703786,0 0.356035,0.205557 6.851893,11.456714 6.851893,11.867827 z"
       inkscape:transform-center-x="7.1433027e-06"
       transform="matrix(2.7348954,0,0,1.9826282,194.10774,105.54196)"
       inkscape:transform-center-y="1.5820619e-06" />
    <path
       sodipodi:type="star"
       style="fill:#a80000;fill-opacity:1;stroke:#a90303;stroke-width:0.244734;stroke-dasharray:none;stroke-opacity:1"
       id="path5530-4-5-2-67-5"
       inkscape:flatsided="true"
       sodipodi:sides="6"
       sodipodi:cx="83.172485"
       sodipodi:cy="31.885044"
       sodipodi:r1="13.703786"
       sodipodi:r2="11.867827"
       sodipodi:arg1="0"
       sodipodi:arg2="0.52359878"
       inkscape:rounded="0.03"
       inkscape:randomized="0"
       d="m 96.876271,31.885044 c 0,0.411114 -6.495858,11.66227 -6.851893,11.867827 -0.356035,0.205557 -13.347751,0.205557 -13.703786,0 -0.356034,-0.205557 -6.851893,-11.456713 -6.851893,-11.867827 0,-0.411113 6.495859,-11.66227 6.851893,-11.867827 0.356035,-0.205556 13.347751,-0.205556 13.703786,0 0.356035,0.205557 6.851893,11.456714 6.851893,11.867827 z"
       inkscape:transform-center-x="9.8206731e-06"
       transform="matrix(2.7348954,0,0,2.0465873,136.02464,175.19402)"
       inkscape:transform-center-y="7.6716883e-06" />
    <path
       sodipodi:type="star"
       style="fill:#a80000;fill-opacity:1;stroke:#a90303;stroke-width:0.24865;stroke-dasharray:none;stroke-opacity:1"
       id="path5530-4-5-2-67-1"
       inkscape:flatsided="true"
       sodipodi:sides="6"
       sodipodi:cx="83.172485"
       sodipodi:cy="31.885044"
       sodipodi:r1="13.703786"
       sodipodi:r2="11.867827"
       sodipodi:arg1="0"
       sodipodi:arg2="0.52359878"
       inkscape:rounded="0.03"
       inkscape:randomized="0"
       d="m 96.876271,31.885044 c 0,0.411114 -6.495858,11.66227 -6.851893,11.867827 -0.356035,0.205557 -13.347751,0.205557 -13.703786,0 -0.356034,-0.205557 -6.851893,-11.456713 -6.851893,-11.867827 0,-0.411113 6.495859,-11.66227 6.851893,-11.867827 0.356035,-0.205556 13.347751,-0.205556 13.703786,0 0.356035,0.205557 6.851893,11.456714 6.851893,11.867827 z"
       inkscape:transform-center-x="2.3810488e-05"
       transform="matrix(2.7348954,0,0,1.9826282,249.57313,176.93369)"
       inkscape:transform-center-y="-7.371607e-06" />
    <path
       sodipodi:type="star"
       style="mix-blend-mode:difference;fill:#a80000;fill-opacity:1;stroke:#a90303;stroke-width:0.24865;stroke-dasharray:none;stroke-opacity:1;filter:url(#filter12691)"
       id="path5530-4-5-2-67-3"
       inkscape:flatsided="true"
       sodipodi:sides="6"
       sodipodi:cx="83.172485"
       sodipodi:cy="31.885044"
       sodipodi:r1="13.703786"
       sodipodi:r2="11.867827"
       sodipodi:arg1="0"
       sodipodi:arg2="0.52359878"
       inkscape:rounded="0.03"
       inkscape:randomized="0"
       d="m 96.876271,31.885044 c 0,0.411114 -6.495858,11.66227 -6.851893,11.867827 -0.356035,0.205557 -13.347751,0.205557 -13.703786,0 -0.356034,-0.205557 -6.851893,-11.456713 -6.851893,-11.867827 0,-0.411113 6.495859,-11.66227 6.851893,-11.867827 0.356035,-0.205556 13.347751,-0.205556 13.703786,0 0.356035,0.205557 6.851893,11.456714 6.851893,11.867827 z"
       transform="matrix(2.7348954,0,0,1.9826282,363.75681,130.1969)"
       inkscape:transform-center-y="3.7885354e-06"
       inkscape:transform-center-x="4.1467708e-06" />
    <path
       sodipodi:type="star"
       style="fill:#a80000;fill-opacity:1;stroke:#a70303;stroke-width:0.24865;stroke-dasharray:none;stroke-opacity:1"
       id="path5530-4-5-2-67-24"
       inkscape:flatsided="true"
       sodipodi:sides="6"
       sodipodi:cx="83.172485"
       sodipodi:cy="31.885044"
       sodipodi:r1="13.703786"
       sodipodi:r2="11.867827"
       sodipodi:arg1="0"
       sodipodi:arg2="0.52359878"
       inkscape:rounded="0.03"
       inkscape:randomized="0"
       d="m 96.876271,31.885044 c 0,0.411114 -6.495858,11.66227 -6.851893,11.867827 -0.356035,0.205557 -13.347751,0.205557 -13.703786,0 -0.356034,-0.205557 -6.851893,-11.456713 -6.851893,-11.867827 0,-0.411113 6.495859,-11.66227 6.851893,-11.867827 0.356035,-0.205556 13.347751,-0.205556 13.703786,0 0.356035,0.205557 6.851893,11.456714 6.851893,11.867827 z"
       inkscape:transform-center-x="4.2092149e-06"
       transform="matrix(2.7348954,0,0,1.9826282,137.18899,33.934267)"
       inkscape:transform-center-y="-3.1689506e-06" />
    <path
       sodipodi:type="star"
       style="fill:#a80000;fill-opacity:1;stroke:#a90303;stroke-width:0.24865;stroke-dasharray:none;stroke-opacity:1"
       id="path5530-4-5-2-67-24-1"
       inkscape:flatsided="true"
       sodipodi:sides="6"
       sodipodi:cx="83.172485"
       sodipodi:cy="31.885044"
       sodipodi:r1="13.703786"
       sodipodi:r2="11.867827"
       sodipodi:arg1="0"
       sodipodi:arg2="0.52359878"
       inkscape:rounded="0.03"
       inkscape:randomized="0"
       d="m 96.876271,31.885044 c 0,0.411114 -6.495858,11.66227 -6.851893,11.867827 -0.356035,0.205557 -13.347751,0.205557 -13.703786,0 -0.356034,-0.205557 -6.851893,-11.456713 -6.851893,-11.867827 0,-0.411113 6.495859,-11.66227 6.851893,-11.867827 0.356035,-0.205556 13.347751,-0.205556 13.703786,0 0.356035,0.205557 6.851893,11.456714 6.851893,11.867827 z"
       inkscape:transform-center-x="9.7963769e-06"
       transform="matrix(2.7348954,0,0,1.9826282,307.208,58.58386)"
       inkscape:transform-center-y="-2.9705165e-06" />
    <path
       sodipodi:type="star"
       style="mix-blend-mode:difference;fill:#a80000;fill-opacity:1;stroke:#a70303;stroke-width:0.24865;stroke-dasharray:none;stroke-opacity:1;filter:url(#filter12659)"
       id="path5530-4-5-2-67-24-1-8"
       inkscape:flatsided="true"
       sodipodi:sides="6"
       sodipodi:cx="83.172485"
       sodipodi:cy="31.885044"
       sodipodi:r1="13.703786"
       sodipodi:r2="11.867827"
       sodipodi:arg1="0"
       sodipodi:arg2="0.52359878"
       inkscape:rounded="0.03"
       inkscape:randomized="0"
       d="m 96.876271,31.885044 c 0,0.411114 -6.495858,11.66227 -6.851893,11.867827 -0.356035,0.205557 -13.347751,0.205557 -13.703786,0 -0.356034,-0.205557 -6.851893,-11.456713 -6.851893,-11.867827 0,-0.411113 6.495859,-11.66227 6.851893,-11.867827 0.356035,-0.205556 13.347751,-0.205556 13.703786,0 0.356035,0.205557 6.851893,11.456714 6.851893,11.867827 z"
       inkscape:transform-center-x="2.2873245e-05"
       transform="matrix(2.7348954,0,0,1.9826282,364.00663,-12.981852)"
       inkscape:transform-center-y="-1.4634348e-06" />
    <path
       sodipodi:type="star"
       style="mix-blend-mode:difference;fill:#fe0606;fill-opacity:0.941441;stroke:#e90606;stroke-width:0.24865;stroke-dasharray:none;stroke-opacity:1;filter:url(#filter12671)"
       id="path5530-4-5-6"
       inkscape:flatsided="true"
       sodipodi:sides="6"
       sodipodi:cx="83.172485"
       sodipodi:cy="31.885044"
       sodipodi:r1="13.703786"
       sodipodi:r2="11.867827"
       sodipodi:arg1="0"
       sodipodi:arg2="0.52359878"
       inkscape:rounded="0.03"
       inkscape:randomized="0"
       d="m 96.876271,31.885044 c 0,0.411114 -6.495858,11.66227 -6.851893,11.867827 -0.356035,0.205557 -13.347751,0.205557 -13.703786,0 -0.356034,-0.205557 -6.851893,-11.456713 -6.851893,-11.867827 0,-0.411113 6.495859,-11.66227 6.851893,-11.867827 0.356035,-0.205556 13.347751,-0.205556 13.703786,0 0.356035,0.205557 6.851893,11.456714 6.851893,11.867827 z"
       inkscape:transform-center-x="1.2824973e-05"
       transform="matrix(2.7348954,0,0,1.9826282,80.846576,57.857345)"
       inkscape:transform-center-y="-1.6904326e-06" />
    <path
       sodipodi:type="star"
       style="fill:#6e1313;fill-opacity:1;stroke:#6f1414;stroke-width:0.24865;stroke-dasharray:none;stroke-opacity:1"
       id="path5530-6-6"
       inkscape:flatsided="true"
       sodipodi:sides="6"
       sodipodi:cx="83.172485"
       sodipodi:cy="31.885044"
       sodipodi:r1="13.703786"
       sodipodi:r2="11.867827"
       sodipodi:arg1="0"
       sodipodi:arg2="0.52359878"
       inkscape:rounded="0.03"
       inkscape:randomized="0"
       d="m 96.876271,31.885044 c 0,0.411114 -6.495858,11.66227 -6.851893,11.867827 -0.356035,0.205557 -13.347751,0.205557 -13.703786,0 -0.356034,-0.205557 -6.851893,-11.456713 -6.851893,-11.867827 0,-0.411113 6.495859,-11.66227 6.851893,-11.867827 0.356035,-0.205556 13.347751,-0.205556 13.703786,0 0.356035,0.205557 6.851893,11.456714 6.851893,11.867827 z"
       inkscape:transform-center-x="8.3861674e-06"
       transform="matrix(2.7348954,0,0,1.9826282,250.9341,34.533773)"
       inkscape:transform-center-y="-1.4252309e-06" />
    <path
       sodipodi:type="star"
       style="fill:#6d1313;fill-opacity:1;stroke:#6b1313;stroke-width:0.248648;stroke-dasharray:none;stroke-opacity:1"
       id="path5530-6-69"
       inkscape:flatsided="true"
       sodipodi:sides="6"
       sodipodi:cx="83.172485"
       sodipodi:cy="31.885044"
       sodipodi:r1="13.703786"
       sodipodi:r2="11.867827"
       sodipodi:arg1="0"
       sodipodi:arg2="0.52359878"
       inkscape:rounded="0.03"
       inkscape:randomized="0"
       d="m 96.876271,31.885044 c 0,0.411114 -6.495858,11.66227 -6.851893,11.867827 -0.356035,0.205557 -13.347751,0.205557 -13.703786,0 -0.356034,-0.205557 -6.851893,-11.456713 -6.851893,-11.867827 0,-0.411113 6.495859,-11.66227 6.851893,-11.867827 0.356035,-0.205556 13.347751,-0.205556 13.703786,0 0.356035,0.205557 6.851893,11.456714 6.851893,11.867827 z"
       inkscape:transform-center-x="1.5824731e-05"
       transform="matrix(2.7348954,0,0,1.9826497,250.41373,129.87238)"
       inkscape:transform-center-y="1.23772e-05" />
    <path
       sodipodi:type="star"
       style="mix-blend-mode:difference;fill:#6d1313;fill-opacity:1;stroke:#6d1313;stroke-width:0.24865;stroke-dasharray:none;stroke-opacity:1;filter:url(#filter12699)"
       id="path5530-6-9"
       inkscape:flatsided="true"
       sodipodi:sides="6"
       sodipodi:cx="83.172485"
       sodipodi:cy="31.885044"
       sodipodi:r1="13.703786"
       sodipodi:r2="11.867827"
       sodipodi:arg1="0"
       sodipodi:arg2="0.52359878"
       inkscape:rounded="0.03"
       inkscape:randomized="0"
       d="m 96.876271,31.885044 c 0,0.411114 -6.495858,11.66227 -6.851893,11.867827 -0.356035,0.205557 -13.347751,0.205557 -13.703786,0 -0.356034,-0.205557 -6.851893,-11.456713 -6.851893,-11.867827 0,-0.411113 6.495859,-11.66227 6.851893,-11.867827 0.356035,-0.205556 13.347751,-0.205556 13.703786,0 0.356035,0.205557 6.851893,11.456714 6.851893,11.867827 z"
       inkscape:transform-center-x="3.4929929e-05"
       transform="matrix(2.7348954,0,0,1.9826282,363.35033,82.458841)"
       inkscape:transform-center-y="-1.9131805e-06" />
    <path
       sodipodi:type="star"
       style="fill:#fe0606;fill-opacity:0.941441;stroke:#f00606;stroke-width:0.24865;stroke-dasharray:none;stroke-opacity:1"
       id="path5530-4-5-6-7"
       inkscape:flatsided="true"
       sodipodi:sides="6"
       sodipodi:cx="83.172485"
       sodipodi:cy="31.885044"
       sodipodi:r1="13.703786"
       sodipodi:r2="11.867827"
       sodipodi:arg1="0"
       sodipodi:arg2="0.52359878"
       inkscape:rounded="0.03"
       inkscape:randomized="0"
       d="m 96.876271,31.885044 c 0,0.411114 -6.495858,11.66227 -6.851893,11.867827 -0.356035,0.205557 -13.347751,0.205557 -13.703786,0 -0.356034,-0.205557 -6.851893,-11.456713 -6.851893,-11.867827 0,-0.411113 6.495859,-11.66227 6.851893,-11.867827 0.356035,-0.205556 13.347751,-0.205556 13.703786,0 0.356035,0.205557 6.851893,11.456714 6.851893,11.867827 z"
       inkscape:transform-center-x="4.7214277e-06"
       transform="matrix(2.7348954,0,0,1.9826282,307.88656,-36.718862)" />
    <path
       sodipodi:type="star"
       style="mix-blend-mode:difference;fill:#fe0606;fill-opacity:0.941441;stroke:#f00606;stroke-width:0.24865;stroke-dasharray:none;stroke-opacity:1;filter:url(#filter12695)"
       id="path5530-4-5-6-7-6"
       inkscape:flatsided="true"
       sodipodi:sides="6"
       sodipodi:cx="83.172485"
       sodipodi:cy="31.885044"
       sodipodi:r1="13.703786"
       sodipodi:r2="11.867827"
       sodipodi:arg1="0"
       sodipodi:arg2="0.52359878"
       inkscape:rounded="0.03"
       inkscape:randomized="0"
       d="m 96.876271,31.885044 c 0,0.411114 -6.495858,11.66227 -6.851893,11.867827 -0.356035,0.205557 -13.347751,0.205557 -13.703786,0 -0.356034,-0.205557 -6.851893,-11.456713 -6.851893,-11.867827 0,-0.411113 6.495859,-11.66227 6.851893,-11.867827 0.356035,-0.205556 13.347751,-0.205556 13.703786,0 0.356035,0.205557 6.851893,11.456714 6.851893,11.867827 z"
       transform="matrix(2.7348954,0,0,1.9826282,363.75681,177.94686)"
       inkscape:transform-center-x="4.1467708e-06"
       inkscape:transform-center-y="4.6491139e-06" />
    <path
       sodipodi:type="star"
       style="fill:#fe0606;fill-opacity:0.941441;stroke:#e90606;stroke-width:0.244712;stroke-dasharray:none;stroke-opacity:1"
       id="path5530-4-5-6-5"
       inkscape:flatsided="true"
       sodipodi:sides="6"
       sodipodi:cx="83.172485"
       sodipodi:cy="31.885044"
       sodipodi:r1="13.703786"
       sodipodi:r2="11.867827"
       sodipodi:arg1="0"
       sodipodi:arg2="0.52359878"
       inkscape:rounded="0.03"
       inkscape:randomized="0"
       d="m 96.876271,31.885044 c 0,0.411114 -6.495858,11.66227 -6.851893,11.867827 -0.356035,0.205557 -13.347751,0.205557 -13.703786,0 -0.356034,-0.205557 -6.851893,-11.456713 -6.851893,-11.867827 0,-0.411113 6.495859,-11.66227 6.851893,-11.867827 0.356035,-0.205556 13.347751,-0.205556 13.703786,0 0.356035,0.205557 6.851893,11.456714 6.851893,11.867827 z"
       inkscape:transform-center-x="4.0011793e-06"
       transform="matrix(2.7788145,0,0,2.0146075,190.61412,56.654602)" />
    <path
       sodipodi:type="star"
       style="fill:#fe0606;fill-opacity:0.941441;stroke:#e90606;stroke-width:0.24865;stroke-dasharray:none;stroke-opacity:1"
       id="path5530-4-5-6-5-9"
       inkscape:flatsided="true"
       sodipodi:sides="6"
       sodipodi:cx="83.172485"
       sodipodi:cy="31.885044"
       sodipodi:r1="13.703786"
       sodipodi:r2="11.867827"
       sodipodi:arg1="0"
       sodipodi:arg2="0.52359878"
       inkscape:rounded="0.03"
       inkscape:randomized="0"
       d="m 96.876271,31.885044 c 0,0.411114 -6.495858,11.66227 -6.851893,11.867827 -0.356035,0.205557 -13.347751,0.205557 -13.703786,0 -0.356034,-0.205557 -6.851893,-11.456713 -6.851893,-11.867827 0,-0.411113 6.495859,-11.66227 6.851893,-11.867827 0.356035,-0.205556 13.347751,-0.205556 13.703786,0 0.356035,0.205557 6.851893,11.456714 6.851893,11.867827 z"
       inkscape:transform-center-x="1.2700553e-05"
       transform="matrix(2.7348954,0,0,1.9826282,192.99406,153.27928)"
       inkscape:transform-center-y="-9.3585541e-06" />
    <path
       sodipodi:type="star"
       style="fill:#fe0606;fill-opacity:0.941441;stroke:#e90606;stroke-width:0.24865;stroke-dasharray:none;stroke-opacity:1"
       id="path5530-4-5-6-1"
       inkscape:flatsided="true"
       sodipodi:sides="6"
       sodipodi:cx="83.172485"
       sodipodi:cy="31.885044"
       sodipodi:r1="13.703786"
       sodipodi:r2="11.867827"
       sodipodi:arg1="0"
       sodipodi:arg2="0.52359878"
       inkscape:rounded="0.03"
       inkscape:randomized="0"
       d="m 96.876271,31.885044 c 0,0.411114 -6.495858,11.66227 -6.851893,11.867827 -0.356035,0.205557 -13.347751,0.205557 -13.703786,0 -0.356034,-0.205557 -6.851893,-11.456713 -6.851893,-11.867827 0,-0.411113 6.495859,-11.66227 6.851893,-11.867827 0.356035,-0.205556 13.347751,-0.205556 13.703786,0 0.356035,0.205557 6.851893,11.456714 6.851893,11.867827 z"
       inkscape:transform-center-x="1.5325478e-05"
       transform="matrix(2.7348954,0,0,1.9826282,137.06185,-13.121395)"
       inkscape:transform-center-y="-2.0614234e-06" />
    <path
       sodipodi:type="star"
       style="mix-blend-mode:difference;fill:#fe0606;fill-opacity:0.941441;stroke:#f40606;stroke-width:0.24865;stroke-dasharray:none;stroke-opacity:1;filter:url(#filter12687)"
       id="path5530-4-5-6-2"
       inkscape:flatsided="true"
       sodipodi:sides="6"
       sodipodi:cx="83.172485"
       sodipodi:cy="31.885044"
       sodipodi:r1="13.703786"
       sodipodi:r2="11.867827"
       sodipodi:arg1="0"
       sodipodi:arg2="0.52359878"
       inkscape:rounded="0.03"
       inkscape:randomized="0"
       d="m 96.876271,31.885044 c 0,0.411114 -6.495858,11.66227 -6.851893,11.867827 -0.356035,0.205557 -13.347751,0.205557 -13.703786,0 -0.356034,-0.205557 -6.851893,-11.456713 -6.851893,-11.867827 0,-0.411113 6.495859,-11.66227 6.851893,-11.867827 0.356035,-0.205556 13.347751,-0.205556 13.703786,0 0.356035,0.205557 6.851893,11.456714 6.851893,11.867827 z"
       inkscape:transform-center-x="6.0860757e-06"
       transform="matrix(2.7348954,0,0,1.9826282,363.74804,34.664125)" />
    <path
       sodipodi:type="star"
       style="fill:#fe0606;fill-opacity:0.941441;stroke:#f40606;stroke-width:0.24865;stroke-dasharray:none;stroke-opacity:1"
       id="path5530-4-5-6-2-9"
       inkscape:flatsided="true"
       sodipodi:sides="6"
       sodipodi:cx="83.172485"
       sodipodi:cy="31.885044"
       sodipodi:r1="13.703786"
       sodipodi:r2="11.867827"
       sodipodi:arg1="0"
       sodipodi:arg2="0.52359878"
       inkscape:rounded="0.03"
       inkscape:randomized="0"
       d="m 96.876271,31.885044 c 0,0.411114 -6.495858,11.66227 -6.851893,11.867827 -0.356035,0.205557 -13.347751,0.205557 -13.703786,0 -0.356034,-0.205557 -6.851893,-11.456713 -6.851893,-11.867827 0,-0.411113 6.495859,-11.66227 6.851893,-11.867827 0.356035,-0.205556 13.347751,-0.205556 13.703786,0 0.356035,0.205557 6.851893,11.456714 6.851893,11.867827 z"
       inkscape:transform-center-x="1.5660252e-05"
       transform="matrix(2.7348954,0,0,1.9826282,307.47853,106.33374)"
       inkscape:transform-center-y="-4.6289646e-06" />
    <path
       sodipodi:type="star"
       style="fill:#a80000;fill-opacity:1;stroke:#aa0000;stroke-width:0.24865;stroke-dasharray:none;stroke-opacity:1"
       id="path5530-4-5-2-67-2"
       inkscape:flatsided="true"
       sodipodi:sides="6"
       sodipodi:cx="83.172485"
       sodipodi:cy="31.885044"
       sodipodi:r1="13.703786"
       sodipodi:r2="11.867827"
       sodipodi:arg1="0"
       sodipodi:arg2="0.52359878"
       inkscape:rounded="0.03"
       inkscape:randomized="0"
       d="m 96.876271,31.885044 c 0,0.411114 -6.495858,11.66227 -6.851893,11.867827 -0.356035,0.205557 -13.347751,0.205557 -13.703786,0 -0.356034,-0.205557 -6.851893,-11.456713 -6.851893,-11.867827 0,-0.411113 6.495859,-11.66227 6.851893,-11.867827 0.356035,-0.205556 13.347751,-0.205556 13.703786,0 0.356035,0.205557 6.851893,11.456714 6.851893,11.867827 z"
       inkscape:transform-center-x="5.5185569e-06"
       transform="matrix(2.7348954,0,0,1.9826282,250.53646,-13.020051)"
       inkscape:transform-center-y="-1.2396742e-06" />
    <path
       sodipodi:type="star"
       style="fill:#6d1313;fill-opacity:1;stroke:#6b1313;stroke-width:0.24865;stroke-dasharray:none;stroke-opacity:1"
       id="path5530-6-69-3"
       inkscape:flatsided="true"
       sodipodi:sides="6"
       sodipodi:cx="83.172485"
       sodipodi:cy="31.885044"
       sodipodi:r1="13.703786"
       sodipodi:r2="11.867827"
       sodipodi:arg1="0"
       sodipodi:arg2="0.52359878"
       inkscape:rounded="0.03"
       inkscape:randomized="0"
       d="m 96.876271,31.885044 c 0,0.411114 -6.495858,11.66227 -6.851893,11.867827 -0.356035,0.205557 -13.347751,0.205557 -13.703786,0 -0.356034,-0.205557 -6.851893,-11.456713 -6.851893,-11.867827 0,-0.411113 6.495859,-11.66227 6.851893,-11.867827 0.356035,-0.205556 13.347751,-0.205556 13.703786,0 0.356035,0.205557 6.851893,11.456714 6.851893,11.867827 z"
       inkscape:transform-center-x="8.9389448e-06"
       transform="matrix(2.7348954,0,0,1.9826282,137.08299,81.687939)" />
    <path
       sodipodi:type="star"
       style="mix-blend-mode:difference;fill:#6e1313;fill-opacity:1;stroke:#6f1414;stroke-width:0.24865;stroke-dasharray:none;stroke-opacity:1;filter:url(#filter12679)"
       id="path5530-6-6-1"
       inkscape:flatsided="true"
       sodipodi:sides="6"
       sodipodi:cx="83.172485"
       sodipodi:cy="31.885044"
       sodipodi:r1="13.703786"
       sodipodi:r2="11.867827"
       sodipodi:arg1="0"
       sodipodi:arg2="0.52359878"
       inkscape:rounded="0.03"
       inkscape:randomized="0"
       d="m 96.876271,31.885044 c 0,0.411114 -6.495858,11.66227 -6.851893,11.867827 -0.356035,0.205557 -13.347751,0.205557 -13.703786,0 -0.356034,-0.205557 -6.851893,-11.456713 -6.851893,-11.867827 0,-0.411113 6.495859,-11.66227 6.851893,-11.867827 0.356035,-0.205556 13.347751,-0.205556 13.703786,0 0.356035,0.205557 6.851893,11.456714 6.851893,11.867827 z"
       inkscape:transform-center-x="1.4214552e-05"
       transform="matrix(2.7348954,0,0,1.9826282,79.810495,153.26124)"
       inkscape:transform-center-y="-9.6100971e-06" />
    <path
       sodipodi:type="star"
       style="fill:#c53c3c;fill-opacity:1;stroke:#c73b3b;stroke-width:0.24865;stroke-dasharray:none;stroke-opacity:1"
       id="path5530-4-5-4-4"
       inkscape:flatsided="true"
       sodipodi:sides="6"
       sodipodi:cx="83.172485"
       sodipodi:cy="31.885044"
       sodipodi:r1="13.703786"
       sodipodi:r2="11.867827"
       sodipodi:arg1="0"
       sodipodi:arg2="0.52359878"
       inkscape:rounded="0.03"
       inkscape:randomized="0"
       d="m 96.876271,31.885044 c 0,0.411114 -6.495858,11.66227 -6.851893,11.867827 -0.356035,0.205557 -13.347751,0.205557 -13.703786,0 -0.356034,-0.205557 -6.851893,-11.456713 -6.851893,-11.867827 0,-0.411113 6.495859,-11.66227 6.851893,-11.867827 0.356035,-0.205556 13.347751,-0.205556 13.703786,0 0.356035,0.205557 6.851893,11.456714 6.851893,11.867827 z"
       inkscape:transform-center-x="5.641599e-06"
       transform="matrix(2.7348954,0,0,1.9826282,307.10736,153.79926)"
       inkscape:transform-center-y="2.2085026e-06" />
    <path
       sodipodi:type="star"
       style="fill:#c53c3c;fill-opacity:1;stroke:#c73b3b;stroke-width:0.24865;stroke-dasharray:none;stroke-opacity:1"
       id="path5530-4-5-4-4-3"
       inkscape:flatsided="true"
       sodipodi:sides="6"
       sodipodi:cx="83.172485"
       sodipodi:cy="31.885044"
       sodipodi:r1="13.703786"
       sodipodi:r2="11.867827"
       sodipodi:arg1="0"
       sodipodi:arg2="0.52359878"
       inkscape:rounded="0.03"
       inkscape:randomized="0"
       d="m 96.876271,31.885044 c 0,0.411114 -6.495858,11.66227 -6.851893,11.867827 -0.356035,0.205557 -13.347751,0.205557 -13.703786,0 -0.356034,-0.205557 -6.851893,-11.456713 -6.851893,-11.867827 0,-0.411113 6.495859,-11.66227 6.851893,-11.867827 0.356035,-0.205556 13.347751,-0.205556 13.703786,0 0.356035,0.205557 6.851893,11.456714 6.851893,11.867827 z"
       inkscape:transform-center-x="2.3603569e-05"
       transform="matrix(2.7348954,0,0,1.9826282,307.60564,11.086618)"
       inkscape:transform-center-y="-3.2064299e-06" />
    <path
       sodipodi:type="star"
       style="fill:#c53c3c;fill-opacity:1;stroke:#c73b3b;stroke-width:0.24865;stroke-dasharray:none;stroke-opacity:1"
       id="path5530-4-5-4-4-2"
       inkscape:flatsided="true"
       sodipodi:sides="6"
       sodipodi:cx="83.172485"
       sodipodi:cy="31.885044"
       sodipodi:r1="13.703786"
       sodipodi:r2="11.867827"
       sodipodi:arg1="0"
       sodipodi:arg2="0.52359878"
       inkscape:rounded="0.03"
       inkscape:randomized="0"
       d="m 96.876271,31.885044 c 0,0.411114 -6.495858,11.66227 -6.851893,11.867827 -0.356035,0.205557 -13.347751,0.205557 -13.703786,0 -0.356034,-0.205557 -6.851893,-11.456713 -6.851893,-11.867827 0,-0.411113 6.495859,-11.66227 6.851893,-11.867827 0.356035,-0.205556 13.347751,-0.205556 13.703786,0 0.356035,0.205557 6.851893,11.456714 6.851893,11.867827 z"
       inkscape:transform-center-x="1.0265331e-05"
       transform="matrix(2.7348954,0,0,1.9826282,250.93412,82.468034)" />
    <path
       sodipodi:type="star"
       style="mix-blend-mode:difference;fill:#a80000;fill-opacity:1;stroke:#a90303;stroke-width:0.24865;stroke-dasharray:none;stroke-opacity:1;filter:url(#filter12675)"
       id="path5530-4-5-2-67-7"
       inkscape:flatsided="true"
       sodipodi:sides="6"
       sodipodi:cx="83.172485"
       sodipodi:cy="31.885044"
       sodipodi:r1="13.703786"
       sodipodi:r2="11.867827"
       sodipodi:arg1="0"
       sodipodi:arg2="0.52359878"
       inkscape:rounded="0.03"
       inkscape:randomized="0"
       d="m 96.876271,31.885044 c 0,0.411114 -6.495858,11.66227 -6.851893,11.867827 -0.356035,0.205557 -13.347751,0.205557 -13.703786,0 -0.356034,-0.205557 -6.851893,-11.456713 -6.851893,-11.867827 0,-0.411113 6.495859,-11.66227 6.851893,-11.867827 0.356035,-0.205556 13.347751,-0.205556 13.703786,0 0.356035,0.205557 6.851893,11.456714 6.851893,11.867827 z"
       inkscape:transform-center-x="9.9208261e-06"
       transform="matrix(2.7348954,0,0,1.9826282,80.665822,105.64991)"
       inkscape:transform-center-y="-1.0001453e-05" />
    <path
       style="opacity:1;fill:#a80000;fill-opacity:1;stroke:#a30202;stroke-width:0.579;stroke-linecap:round;stroke-linejoin:miter;stroke-dasharray:none;stroke-opacity:1;paint-order:normal"
       d="m 326.99041,2.6268791 h 74.60037 L 382.98605,26.091352 h -37.48169 z"
       id="path12487" />
    <path
       style="fill:#c53d3d;fill-opacity:1;stroke:#ca3737;stroke-width:0.579;stroke-linecap:round;stroke-linejoin:miter;stroke-dasharray:none;stroke-opacity:1;paint-order:normal"
       d="m 441.06557,2.6687051 h 74.60036 L 497.0612,26.133177 h -37.48169 z"
       id="path12487-9" />
    <path
       style="mix-blend-mode:difference;fill:#c53d3d;fill-opacity:1;stroke:#ca3737;stroke-width:0.24865;stroke-linecap:round;stroke-linejoin:miter;stroke-dasharray:none;stroke-opacity:1;paint-order:normal;filter:url(#filter12703)"
       d="m 196.81565,7.3792244 h 27.27722 l -6.80272,11.8350376 h -13.70498 z"
       id="path12487-9-7"
       transform="matrix(2.7348954,0,0,1.9826282,16.593819,-11.674512)" />
    <path
       style="fill:#c53d3d;fill-opacity:1;stroke:#ca3737;stroke-width:0.579;stroke-linecap:round;stroke-linejoin:miter;stroke-dasharray:none;stroke-opacity:1;paint-order:normal"
       d="M 457.62036,264.10173 H 383.02 l 18.60472,-23.85084 h 37.48169 z"
       id="path12487-9-5" />
    <path
       style="mix-blend-mode:difference;fill:#ff0303;fill-opacity:1;stroke:#f60b0b;stroke-width:0.24865;stroke-linecap:round;stroke-linejoin:miter;stroke-dasharray:none;stroke-opacity:1;paint-order:normal;filter:url(#filter12683)"
       d="M 119.19907,139.42767 H 91.921854 l 6.80272,-11.83504 h 13.704976 z"
       id="path12487-9-5-3"
       transform="matrix(2.7348954,0,0,1.9826282,17.652153,-12.203679)" />
    <path
       style="fill:#6b1313;fill-opacity:1;stroke:#710505;stroke-width:0.579;stroke-linecap:round;stroke-linejoin:miter;stroke-dasharray:none;stroke-opacity:1;paint-order:normal"
       d="m 571.17215,264.25633 h -74.60033 l 18.60474,-23.46447 h 37.48168 z"
       id="path12487-9-5-3-8" />
    <path
       style="opacity:1;fill:#d10000;fill-opacity:0.594595;stroke:#000000;stroke-width:0.579;stroke-linecap:round;stroke-linejoin:miter;stroke-dasharray:none;stroke-opacity:0;paint-order:normal"
       d="M 2.1558213,0.78609412 631.78091,-0.37794368 V 265.79679 l -2.6999,1.16403 H 1.0758413 Z"
       id="path12657" />
  </g>
</svg>
